<svg width="24" height="24" viewBox="0 0 36 36" fill="none" xmlns="http://www.w3.org/2000/svg">
<path fillRule="evenodd" clipRule="evenodd" d="M4.71289 6.6655C9.05221 2.87628 15.6386 2.95372 19.8992 7.00998C24.4054 11.2999 24.5803 18.4524 20.281 22.9693C16.134 27.326 9.31658 27.6398 4.77965 23.7664L8.03481 20.3471C10.6771 22.4353 14.5091 22.2056 16.8723 19.7235C19.3771 17.0919 19.285 12.9235 16.6534 10.4187C14.2781 8.1569 10.6758 8.0167 8.14296 9.93134L4.71289 6.6655Z" fill="#1A1A1A"/>
<path d="M7.24494 11.7607L3.58257 8.1001L0.013758 11.6388L3.67613 15.3008L0 18.9477L3.55506 22.5001L7.23118 18.8532L10.8 15.3145L7.24494 11.7607Z" fill="#01DB83"/>
</svg>
